<svg xmlns="http://www.w3.org/2000/svg" xmlns:xlink="http://www.w3.org/1999/xlink" viewBox="0 0 806.43 370.79"><defs><style>.cls-1{fill:none;}.cls-2{isolation:isolate;}.cls-3{fill:#1f371b;}.cls-4{clip-path:url(#clip-path);}.cls-5{opacity:0.5;mix-blend-mode:multiply;}.cls-6{fill:#534019;}.cls-7{fill:#7c5632;}.cls-8{fill:#2e2714;}.cls-9{fill:#17370f;}.cls-10{fill:#141f13;}.cls-11{fill:#2c7339;}</style><clipPath id="clip-path"><polygon id="_Clipping_Path_" data-name="&lt;Clipping Path&gt;" class="cls-1" points="79.47 239.02 133.41 255.01 125.08 220.84 78.38 206.09 77.38 175.88 117.44 189.5 110.43 160.74 76.47 148.15 75.63 122.68 104 134.35 98.1 110.15 74.86 99.29 74.14 77.77 92.68 87.94 87.72 67.57 73.5 58.3 72.88 39.54 83.16 48.88 78.98 31.73 72.3 21.83 71.63 1.56 71.02 19.94 68.18 15.73 64.28 31.73 70.45 37.33 69.84 55.91 60.22 49.65 55.54 67.57 69.2 75.06 68.5 96.32 50.58 87.94 45.16 110.15 67.74 119.44 66.91 144.6 39.26 134.35 32.83 160.74 66 172.01 65.02 201.88 25.82 189.5 18.18 220.84 63.94 234.41 60.76 330.97 32.27 347.08 60.22 347.08 83.03 347.08 110.99 347.08 82.5 330.97 79.47 239.02"/></clipPath></defs><title>Colored Logo</title><g class="cls-2"><g id="Layer_2" data-name="Layer 2"><g id="Layer_2-2" data-name="Layer 2"><g id="Colored_Logo" data-name="Colored Logo"><path class="cls-3" d="M196.42,264.5v82.58H181.08V311.69H138.37v35.39H123V264.5h15.33v34.09h42.71V264.5Z"/><path class="cls-3" d="M207,264.5h15.34v69.6h43.18v13H207Z"/><path class="cls-3" d="M274.39,277.48H247v-13H317.1v13H289.73v69.6H274.39Z"/><path class="cls-3" d="M347.06,264.5h36.1a51.85,51.85,0,0,1,23.48,5.13,38,38,0,0,1,15.92,14.51,44.17,44.17,0,0,1,0,43.3A38,38,0,0,1,406.64,342a51.85,51.85,0,0,1-23.48,5.13h-36.1Zm35.39,69.6a35.05,35.05,0,0,0,16-3.48,24.82,24.82,0,0,0,10.61-9.91,31.78,31.78,0,0,0,0-29.84A24.82,24.82,0,0,0,398.44,281a35.05,35.05,0,0,0-16-3.48H362.4V334.1Z"/><path class="cls-3" d="M500.32,320.3H450.89a17.09,17.09,0,0,0,6.78,11,22.26,22.26,0,0,0,13.62,4.07q10.38,0,17.11-6.84l7.9,9.08a26.66,26.66,0,0,1-10.73,7.67,42.49,42.49,0,0,1-32.91-1.53,29.77,29.77,0,0,1-12.21-11.51,32.38,32.38,0,0,1-4.31-16.69A32.86,32.86,0,0,1,440.33,299,29.7,29.7,0,0,1,452,287.5a33.92,33.92,0,0,1,16.75-4.12,33,33,0,0,1,16.46,4.07,28.78,28.78,0,0,1,11.32,11.44,34.72,34.72,0,0,1,4.07,17C500.55,317,500.47,318.41,500.32,320.3Zm-43.6-20.94a17.64,17.64,0,0,0-6,11.15h35.74a17.36,17.36,0,0,0-5.78-11.09,17.57,17.57,0,0,0-12-4.25A17.82,17.82,0,0,0,456.72,299.36Z"/><path class="cls-3" d="M517.2,345.9a37.85,37.85,0,0,1-11.68-5.07l5.66-11.21a36.3,36.3,0,0,0,10.2,4.54,42.43,42.43,0,0,0,11.74,1.71q13.21,0,13.22-7a4.66,4.66,0,0,0-3.37-4.6,58.73,58.73,0,0,0-10.79-2.48,87,87,0,0,1-12.68-2.71,19.4,19.4,0,0,1-8.5-5.37q-3.6-3.83-3.6-10.67a16.79,16.79,0,0,1,7.5-14.34q7.49-5.36,20.23-5.36a58.5,58.5,0,0,1,13,1.47,36.28,36.28,0,0,1,10.62,3.95L553.06,300a34.91,34.91,0,0,0-18-4.72q-6.5,0-9.85,1.95t-3.36,5.13a5.11,5.11,0,0,0,3.6,5,56.13,56.13,0,0,0,11.14,2.77,86.75,86.75,0,0,1,12.39,2.72,19.38,19.38,0,0,1,8.32,5.19q3.48,3.66,3.48,10.38,0,8.85-7.67,14.16t-20.88,5.31A56.19,56.19,0,0,1,517.2,345.9Z"/><path class="cls-3" d="M571.77,271.17a8.71,8.71,0,0,1,0-12.63,9.47,9.47,0,0,1,6.72-2.53,9.75,9.75,0,0,1,6.73,2.41,7.81,7.81,0,0,1,2.71,6.08,8.89,8.89,0,0,1-2.65,6.55,9.19,9.19,0,0,1-6.79,2.65A9.47,9.47,0,0,1,571.77,271.17Zm-.71,12.91h14.75v63H571.06Z"/><path class="cls-3" d="M664.26,284.08v53.44q0,33.27-34,33.27a63.11,63.11,0,0,1-17.22-2.3,36.62,36.62,0,0,1-13.45-6.66l6.6-11.09a31.6,31.6,0,0,0,10.44,5.48,40.87,40.87,0,0,0,12.8,2.07q10.38,0,15.22-4.72t4.84-14.39v-3.31a24.17,24.17,0,0,1-9.2,6.25,32.36,32.36,0,0,1-11.92,2.13,34.16,34.16,0,0,1-16.22-3.84,28.78,28.78,0,0,1-11.44-10.79,30.31,30.31,0,0,1-4.19-15.93,30,30,0,0,1,4.19-15.86,28.58,28.58,0,0,1,11.44-10.68,34.59,34.59,0,0,1,16.22-3.77,33.17,33.17,0,0,1,12.45,2.24,23,23,0,0,1,9.38,6.84v-8.38Zm-19.88,42.65a17,17,0,0,0,5.37-13,16.72,16.72,0,0,0-5.37-12.86q-5.37-4.95-13.75-4.95t-13.86,4.95a16.71,16.71,0,0,0-5.36,12.86,17,17,0,0,0,5.36,13q5.37,5,13.86,5T644.38,326.73Z"/><path class="cls-3" d="M734.75,290.34q7.2,7,7.2,20.64v36.1H727.2V312.87q0-8.26-3.89-12.45t-11.09-4.19q-8.15,0-12.86,4.9t-4.72,14.1v31.85H679.9v-63h14v8.14a22.91,22.91,0,0,1,9.2-6.6,33,33,0,0,1,12.5-2.24Q727.57,283.38,734.75,290.34Z"/><path class="cls-3" d="M762.9,345.9a37.85,37.85,0,0,1-11.68-5.07l5.66-11.21a36.5,36.5,0,0,0,10.21,4.54,42.38,42.38,0,0,0,11.74,1.71q13.2,0,13.21-7a4.65,4.65,0,0,0-3.36-4.6,58.67,58.67,0,0,0-10.8-2.48,87,87,0,0,1-12.68-2.71,19.43,19.43,0,0,1-8.49-5.37q-3.6-3.83-3.6-10.67a16.8,16.8,0,0,1,7.49-14.34q7.49-5.36,20.23-5.36a58.59,58.59,0,0,1,13,1.47,36.5,36.5,0,0,1,10.62,3.95L798.76,300a34.88,34.88,0,0,0-18-4.72q-6.48,0-9.85,1.95t-3.36,5.13a5.12,5.12,0,0,0,3.6,5,56.27,56.27,0,0,0,11.15,2.77,86.57,86.57,0,0,1,12.38,2.72,19.32,19.32,0,0,1,8.32,5.19q3.48,3.66,3.48,10.38,0,8.85-7.67,14.16t-20.88,5.31A56.3,56.3,0,0,1,762.9,345.9Z"/><polygon class="cls-3" points="25.82 189.5 125.08 220.84 133.41 255.01 18.18 220.84 25.82 189.5"/><polygon class="cls-3" points="117.44 189.5 32.83 160.74 39.26 134.35 110.43 160.74 117.44 189.5"/><polygon class="cls-3" points="50.58 87.94 98.1 110.15 104 134.35 45.16 110.15 50.58 87.94"/><polygon class="cls-3" points="92.68 87.94 55.54 67.57 60.22 49.65 87.72 67.57 92.68 87.94"/><g id="_Group_" data-name="&lt;Group&gt;"><polygon class="cls-3" points="68.18 15.73 78.98 31.73 83.16 48.88 64.28 31.73 68.18 15.73"/></g><g class="cls-4"><polygon id="_Path_" data-name="&lt;Path&gt;" class="cls-5" points="84.85 330.97 73.97 1.56 63.1 330.97 34.61 347.08 62.57 347.08 85.38 347.08 113.34 347.08 84.85 330.97"/><g class="cls-5"><polygon points="1.56 290.69 134.19 253.45 125.86 219.28 10.63 253.45 1.56 290.69"/><polygon points="1.56 290.69 134.19 253.45 125.86 219.28 10.63 253.45 1.56 290.69"/><polygon points="1.56 290.69 134.19 253.45 125.86 219.28 10.63 253.45 1.56 290.69"/><polygon points="18.96 219.28 26.6 187.93 111.21 159.17 118.22 187.93 18.96 219.28"/><polygon points="18.96 219.28 26.6 187.93 111.21 159.17 118.22 187.93 18.96 219.28"/><polygon points="33.61 159.17 104.78 132.79 98.88 108.58 40.04 132.79 33.61 159.17"/><polygon points="33.61 159.17 104.78 132.79 98.88 108.58 40.04 132.79 33.61 159.17"/><polygon points="45.94 108.58 93.47 86.38 88.5 66 51.36 86.38 45.94 108.58"/><polygon points="45.94 108.58 93.47 86.38 88.5 66 51.36 86.38 45.94 108.58"/><polygon points="56.32 66 83.94 47.31 79.76 30.16 61.01 48.09 56.32 66"/><polygon points="56.32 66 83.94 47.31 79.76 30.16 61.01 48.09 56.32 66"/><polygon points="65.06 30.16 75.93 14.43 72.41 0 65.06 30.16"/></g><g class="cls-5"><polygon points="0 294.6 132.63 257.36 124.3 223.19 9.07 257.36 0 294.6"/><polygon points="0 294.6 132.63 257.36 124.3 223.19 9.07 257.36 0 294.6"/><polygon points="0 294.6 132.63 257.36 124.3 223.19 9.07 257.36 0 294.6"/><polygon points="17.4 223.19 25.04 191.84 109.65 163.08 116.66 191.84 17.4 223.19"/><polygon points="17.4 223.19 25.04 191.84 109.65 163.08 116.66 191.84 17.4 223.19"/><polygon points="32.05 163.08 103.22 136.7 97.31 112.49 38.48 136.7 32.05 163.08"/><polygon points="32.05 163.08 103.22 136.7 97.31 112.49 38.48 136.7 32.05 163.08"/><polygon points="44.38 112.49 91.9 90.28 86.94 69.91 49.79 90.28 44.38 112.49"/><polygon points="44.38 112.49 91.9 90.28 86.94 69.91 49.79 90.28 44.38 112.49"/><polygon points="54.76 69.91 82.38 51.22 78.2 34.07 59.44 51.99 54.76 69.91"/><polygon points="54.76 69.91 82.38 51.22 78.2 34.07 59.44 51.99 54.76 69.91"/><polygon points="63.49 34.07 74.37 18.34 70.85 3.91 63.49 34.07"/></g></g><polygon id="_Path_2" data-name="&lt;Path&gt;" class="cls-6" points="82.5 330.97 71.63 1.56 60.76 330.97 32.27 347.08 60.22 347.08 83.03 347.08 110.99 347.08 82.5 330.97"/><polygon class="cls-7" points="66.07 336.28 71.63 1.56 61.98 331.71 34.46 346.71 66.07 336.28"/><polygon class="cls-8" points="77.19 336.28 71.63 1.56 81.28 331.71 108.8 346.71 77.19 336.28"/><polygon class="cls-3" points="0.78 292.25 133.41 255.01 125.08 220.84 9.85 255.01 0.78 292.25"/><polygon class="cls-3" points="0.78 292.25 133.41 255.01 125.08 220.84 9.85 255.01 0.78 292.25"/><polygon class="cls-9" points="0.78 292.25 133.41 255.01 125.08 220.84 9.85 255.01 0.78 292.25"/><polygon class="cls-3" points="18.18 220.84 25.82 189.5 110.43 160.74 117.44 189.5 18.18 220.84"/><polygon class="cls-9" points="18.18 220.84 25.82 189.5 110.43 160.74 117.44 189.5 18.18 220.84"/><polygon class="cls-3" points="32.83 160.74 104 134.35 98.1 110.15 39.26 134.35 32.83 160.74"/><polygon class="cls-9" points="32.83 160.74 104 134.35 98.1 110.15 39.26 134.35 32.83 160.74"/><polygon class="cls-3" points="45.16 110.15 92.68 87.94 87.72 67.57 50.58 87.94 45.16 110.15"/><polygon class="cls-9" points="45.16 110.15 92.68 87.94 87.72 67.57 50.58 87.94 45.16 110.15"/><polygon class="cls-3" points="55.54 67.57 83.16 48.88 78.98 31.73 60.22 49.65 55.54 67.57"/><polygon class="cls-9" points="55.54 67.57 83.16 48.88 78.98 31.73 60.22 49.65 55.54 67.57"/><polygon class="cls-3" points="64.28 31.73 75.15 16 71.63 1.56 64.28 31.73"/><polygon class="cls-10" points="107.95 162.9 109.54 162.36 115.95 188.66 114.35 189.16 107.95 162.9"/><polygon class="cls-10" points="95.66 112.5 97.23 111.86 102.52 133.57 100.94 134.15 95.66 112.5"/><polygon class="cls-10" points="122.57 222.89 124.17 222.41 131.91 254.13 130.29 254.59 122.57 222.89"/><polygon class="cls-10" points="70.77 10.37 71.63 6.84 73.8 15.75 72.53 17.59 70.77 10.37"/><polygon class="cls-10" points="85.37 70.28 86.89 69.45 91.23 87.24 89.68 87.96 85.37 70.28"/><polygon class="cls-10" points="76.89 35.46 78.28 34.13 81.74 48.33 80.27 49.33 76.89 35.46"/><polygon class="cls-11" points="51.66 88.77 53.5 87.76 48.79 107.07 46.99 107.91 51.66 88.77"/><polygon class="cls-11" points="40.33 135.27 42.1 134.54 36.36 158.1 34.6 158.75 40.33 135.27"/><polygon class="cls-11" points="26.87 190.46 28.61 189.87 21.65 218.44 19.92 218.98 26.87 190.46"/><polygon class="cls-11" points="10.9 256.01 12.62 255.5 4.21 289.99 2.5 290.47 10.9 256.01"/><polygon class="cls-11" points="71.63 6.84 72.42 10.11 69.55 21.89 67.09 25.45 71.63 6.84"/><polygon class="cls-11" points="61.34 50.31 63.02 48.71 59.43 63.43 57.59 64.67 61.34 50.31"/></g></g></g></g></svg>