<svg xmlns="http://www.w3.org/2000/svg" viewBox="0 0 280.95 58.54"><defs><style>.cls-1{fill:#fff;}</style></defs><title>Logo</title><g id="Layer_2" data-name="Layer 2"><g id="Layer_1-2" data-name="Layer 1"><path class="cls-1" d="M59.3,19.38v30H53.73V36.53H38.21V49.39H32.64v-30h5.57V31.77H53.73V19.38Zm3.86,0h5.57V44.67H84.42v4.72H63.16ZM87.64,24.1h-10V19.38h25.46V24.1H93.21V49.39H87.64ZM114,19.38h13.11a18.82,18.82,0,0,1,8.53,1.87,13.76,13.76,0,0,1,5.79,5.27,14.92,14.92,0,0,1,2.06,7.87,14.91,14.91,0,0,1-2.06,7.86,13.76,13.76,0,0,1-5.79,5.27,18.69,18.69,0,0,1-8.53,1.87H114ZM126.9,44.67a12.81,12.81,0,0,0,5.81-1.26,9,9,0,0,0,3.85-3.6,10.66,10.66,0,0,0,1.35-5.42A10.67,10.67,0,0,0,136.56,29a9.12,9.12,0,0,0-3.85-3.6,12.81,12.81,0,0,0-5.81-1.26h-7.29V44.67Zm42.82-5h-18a6.28,6.28,0,0,0,2.47,4,8.12,8.12,0,0,0,5,1.47,8.33,8.33,0,0,0,6.21-2.48l2.87,3.3a9.57,9.57,0,0,1-3.9,2.79,14.36,14.36,0,0,1-5.31.94,14.1,14.1,0,0,1-6.64-1.5A10.8,10.8,0,0,1,148,44a12.56,12.56,0,0,1,0-12.09,10.8,10.8,0,0,1,4.22-4.18,12.31,12.31,0,0,1,6.08-1.5,12,12,0,0,1,6,1.48,10.5,10.5,0,0,1,4.12,4.16,12.65,12.65,0,0,1,1.48,6.19Q169.81,38.63,169.72,39.66Zm-15.84-7.61a6.41,6.41,0,0,0-2.16,4.05h13a6.33,6.33,0,0,0-2.1-4,6.4,6.4,0,0,0-4.38-1.54A6.5,6.5,0,0,0,153.88,32.05Zm22,16.91a13.85,13.85,0,0,1-4.25-1.84L173.67,43a12.93,12.93,0,0,0,3.71,1.65,15.16,15.16,0,0,0,4.26.63c3.2,0,4.8-.85,4.8-2.53a1.68,1.68,0,0,0-1.22-1.67,20.09,20.09,0,0,0-3.92-.9,32.58,32.58,0,0,1-4.61-1,7.05,7.05,0,0,1-3.08-1.95,5.41,5.41,0,0,1-1.31-3.88A6.11,6.11,0,0,1,175,28.19a12.39,12.39,0,0,1,7.35-2,21.17,21.17,0,0,1,4.72.54,13.27,13.27,0,0,1,3.85,1.43l-2.05,4.08a12.65,12.65,0,0,0-6.56-1.72,7.28,7.28,0,0,0-3.58.71,2.09,2.09,0,0,0-1.22,1.86A1.84,1.84,0,0,0,178.84,35a20.17,20.17,0,0,0,4,1,32.54,32.54,0,0,1,4.5,1,7.12,7.12,0,0,1,3,1.88,5.29,5.29,0,0,1,1.26,3.78,6,6,0,0,1-2.78,5.14,13.12,13.12,0,0,1-7.59,1.93A20.68,20.68,0,0,1,175.86,49Zm19.82-27.15a3.18,3.18,0,0,1,0-4.59,3.44,3.44,0,0,1,2.45-.92,3.52,3.52,0,0,1,2.44.88,2.81,2.81,0,0,1,1,2.2,3.2,3.2,0,0,1-1,2.38,3.3,3.3,0,0,1-2.46,1A3.48,3.48,0,0,1,195.68,21.81Zm-.25,4.69h5.36V49.39h-5.36Zm33.86,0V45.92Q229.29,58,216.94,58a22.74,22.74,0,0,1-6.25-.83,13.42,13.42,0,0,1-4.89-2.42l2.4-4a11.41,11.41,0,0,0,3.79,2,14.88,14.88,0,0,0,4.65.75q3.78,0,5.53-1.71c1.18-1.15,1.76-2.89,1.76-5.23v-1.2a8.86,8.86,0,0,1-3.34,2.27,11.9,11.9,0,0,1-4.33.77,12.44,12.44,0,0,1-5.9-1.39A10.47,10.47,0,0,1,206.21,43a10.92,10.92,0,0,1-1.52-5.78,10.86,10.86,0,0,1,1.52-5.77,10.41,10.41,0,0,1,4.15-3.88,12.67,12.67,0,0,1,5.9-1.37,11.93,11.93,0,0,1,4.52.82,8.37,8.37,0,0,1,3.41,2.48v-3ZM222.07,42a6.17,6.17,0,0,0,2-4.73,6.05,6.05,0,0,0-2-4.67,7.89,7.89,0,0,0-10,0,6.05,6.05,0,0,0-1.95,4.67A6.17,6.17,0,0,0,212,42a7.79,7.79,0,0,0,10,0ZM254.9,28.77q2.62,2.54,2.62,7.5V49.39h-5.36V37a6.43,6.43,0,0,0-1.41-4.52,5.23,5.23,0,0,0-4-1.53,6.2,6.2,0,0,0-4.67,1.78,7.09,7.09,0,0,0-1.72,5.13V49.39H235V26.5h5.1v3a8.32,8.32,0,0,1,3.35-2.4,11.85,11.85,0,0,1,4.54-.82A9.53,9.53,0,0,1,254.9,28.77ZM265.13,49a13.79,13.79,0,0,1-4.24-1.84L262.94,43a13.06,13.06,0,0,0,3.71,1.65,15.28,15.28,0,0,0,4.27.63c3.2,0,4.8-.85,4.8-2.53a1.69,1.69,0,0,0-1.22-1.67,20.42,20.42,0,0,0-3.93-.9,32.4,32.4,0,0,1-4.6-1,7,7,0,0,1-3.09-1.95,5.45,5.45,0,0,1-1.31-3.88,6.11,6.11,0,0,1,2.72-5.21,12.42,12.42,0,0,1,7.36-2,21,21,0,0,1,4.71.54,13.34,13.34,0,0,1,3.86,1.43l-2.06,4.08a12.62,12.62,0,0,0-6.56-1.72,7.31,7.31,0,0,0-3.58.71,2.11,2.11,0,0,0-1.22,1.86A1.86,1.86,0,0,0,268.11,35a20.17,20.17,0,0,0,4.05,1,31.88,31.88,0,0,1,4.5,1,7.06,7.06,0,0,1,3,1.88A5.25,5.25,0,0,1,281,42.62a6,6,0,0,1-2.79,5.14,13.12,13.12,0,0,1-7.59,1.93A20.74,20.74,0,0,1,265.13,49ZM3,37.15l19.52,5.79-1.41-5.79L4.24,31.84ZM18.58,27,6.52,22.5,5.43,27l14.33,4.87ZM7.52,18.4l10,4.1-1-4.1-8-3.77Zm7.21-7.22-4.66-3-.79,3,6.29,3.45Zm-4-6.07L14,8l-.71-2.91L11.42,2.4Zm3.09,50.7L12,0,10.16,55.81,5.33,58.54H18.67Zm0,0L12,0,10.16,55.81,5.33,58.54H18.67ZM0,49.25l22.47-6.31-1.41-5.79L1.54,42.94Zm0,0,22.47-6.31-1.41-5.79L1.54,42.94Zm0,0,22.47-6.31-1.41-5.79L1.54,42.94ZM19.76,31.84,18.58,27,4.24,31.84,3,37.15Zm0,0L18.58,27,4.24,31.84,3,37.15ZM5.43,27,17.49,22.5l-1-4.1-10,4.1Zm0,0L17.49,22.5l-1-4.1-10,4.1ZM7.52,18.4l8.05-3.77-.84-3.45L8.44,14.63Zm0,0,8.05-3.77-.84-3.45L8.44,14.63Zm1.76-7.22L14,8l-.71-2.91-3.18,3Zm0,0L14,8l-.71-2.91-3.18,3Zm1.48-6.07L12.6,2.45,12,0Z"/></g></g></svg>