<svg xmlns="http://www.w3.org/2000/svg" viewBox="0 0 1921 1080"><defs><style>.cls-1{fill:#5791d4;}.cls-2{fill:#ff7800;opacity:0.25;}.cls-3{fill:#ff8900;opacity:0.44;}.cls-4{fill:#ff9a00;opacity:0.63;}.cls-5{fill:#fa0;opacity:0.81;}.cls-6{fill:#fb0;}.cls-7{fill:#5aaa82;}.cls-8{fill:#317a5d;}.cls-9{fill:#12543e;}.cls-10{fill:#fff;opacity:0.31;}</style></defs><title>Asset 5</title><g id="Layer_2" data-name="Layer 2"><g id="Layer_2-2" data-name="Layer 2"><rect class="cls-1" x="0.56" y="0.56" width="1919.88" height="1078.88"/><path d="M1919.88,1.12V1078.88H1.12V1.12H1919.88M1921,0H0V1080H1921V0Z"/><ellipse class="cls-2" cx="455.24" cy="299" rx="263.14" ry="263"/><ellipse class="cls-3" cx="455.24" cy="299" rx="225.62" ry="225.5"/><ellipse class="cls-4" cx="455.24" cy="299" rx="188.1" ry="188"/><ellipse class="cls-5" cx="455.24" cy="299" rx="150.58" ry="150.5"/><ellipse class="cls-6" cx="455.24" cy="299" rx="113.06" ry="113"/><path class="cls-7" d="M813.33,669.49c-9.31-2.39-16.81-10.64-25-17-8.44-6.48-18.1-7.51-27.41-10.85-15.17-5.44-29.09-8.59-44.51-8.3-6.94.13-10.94-.19-17.19-5.36-9.14-7.57-12.64-23.12-20.92-31.53-6.52-6.61-9.81-4.86-18.42-5.72-21.86-2.19-45.92-3.44-67-11.7-5.43-2.12-6.53-3.05-10.17-10.19-4.85-9.54-9-17.19-14.36-26.32-.2-.34-3.71-10.17-4.72-11.62-5.51-7.91-14.24-8.68-20.82-14.64-4.5-4.07-7.43-8.88-11.55-14-5.48-6.84-12.11-11.31-17.31-18.43-11.3-15.45-28.82-21.44-42.19-33.74-11.52-10.59-16.31-30.53-24.75-44.14-1.28-2.06-1.07-5.6-2.76-7.86-3.32-4.46-13.43-7.78-17.77-9-7.22-2.05-14,3.67-21.86,3.25-16.14-.86-29.39-13.45-41.19-28.85-6.65-8.69-13.68-21.39-21.16-27.17-3.59-2.77-7.16-3.26-10.76-7.32s-7.28-8.56-10.72-12.79c-4.59-5.66-5.51-6.13-7.85-15.4-2.39-9.45-3.33-16-9-21.56-6.57-6.38-13.77-1.82-20.94-3.71-10.8-2.85-26.68-17.1-35.89-23.32-18.57-12.53-4.33-2.11-9.78-8.93-6.72-8.41-7.33-9.29-16.47-9.09-7.64.17-15.44,1.07-22.92-1.05-9.1-2.58-20.3-7.59-29.88-3.8-6.79,2.68-10.71,15.89-15.31,23.77-5,8.56-10.64,15.3-16.29,22.72s-12.51,13.63-17.47,21.79c-5.34,8.77-8.36,25.64-14.61,33.09-4.16,5-9.9,6.28-14.34,11.24s-8.82,7-12.84,11.31C66.63,364.46,63,388.87,54.13,403c-7.87,12.6-15.41,22.44-24.69,30.87C22.26,440.44,13.19,455,6.76,464.24a56,56,0,0,0-6.76,14V749.78c14.84.49,29.78.84,44.19-4.74C52,742,60,737.94,67.8,734.65c7.47-3.13,14.46-11.76,22.12-13.54,16.21-3.76,34.14-9.41,50.71-8.88,27.41.88,54.86.1,82.27.1,24.58,0,49.16.06,73.75,0,22-.09,44.24-2.17,66.1,2.75,12.69,2.86,24.64,5.72,37.45,6.62,10.27.71,20,4.54,30.36,4.83,18.48.53,37.05-.24,55.52-.24,21.62,0,43.84,2.37,65.38.35,11.13-1.05,22.3-6.11,33.3-8.6,18.73-4.24,36.6-5.42,55.53-5.78,13.23-.25,26.08,2.13,39.28,3.7,6.27.74,16.22,3.62,22.9.11,2.9-1.53,5.47-5.2,8.28-7.18,7.46-5.27,15.29-5.68,23.5-5.92,9.11-.27,14-4.83,23.66-4.48,15.06.53,25.36-11.31,39.77-13.8,6-1,34.36,7.09,33.58-9.7C827.37,667.82,818.67,670.85,813.33,669.49Z"/><path class="cls-7" d="M1920,693.06a17.17,17.17,0,0,0-3.29-1l-7.53.33-19.39-9.21c-16.82-9.1-34.75-23.08-43.56-41.19-6.45-13.24-16.58-24.62-24-37.56a157.25,157.25,0,0,0-14.93-21.95c-6-7.41-14-13.36-17-23-7.76-24.64-24.12-44.89-41.73-62.77-6.22,6-9.68,13.94-17.24,18-8,4.29-18.76,5.64-27.52,6.63-10.13,1.13-15.52,1.48-18.75-9.44-1.79-6.06-3.25-14.53-2.69-21.21-13.42-8.05-33.09-6.73-48.06-8.87.64-5.82,2.63-21-5.29-22-3.86,7.6-11.41,20.39-19.33,10.66-4.77-5.87-3.4-16.81-3.21-23.86.44-17-6.67-21.67-17.18-34.23-7.92-9.47-10.84-16.38-20.27-22.19s-20.81-7.39-31.3-9.56c-18.68-3.85-31.47-13.69-43-30-5.57-7.91-11.2-12.55-18.22-19.75-7.26-7.46-9.3-11.34-19.34-11.78-13.35-.58-17.14,3.84-26.5,12.39-9.71,8.87-22,15.22-32.75,22.56-6.29,4.32-10.63,9.62-15.6,14.39a30.42,30.42,0,0,1-19.53,8.92c-10.48.6-17.21-5.58-26.27-9.24-8.21-3.32-8.75-3-16.73,2.91-9.06,6.76-15.22,13.22-26.1,14.52-11.14,1.32-24.25-.37-35.31-.18-3.56.06-7.39.74-10.86-.26-6.79-2-11.24-8.25-19.09-8-6.47.24-6.39,1.9-11.55,5-10.61,6.29-22.43,10.64-33.26,16.45-8.86,4.75-15.84,11.59-24.07,17.49-11.12,8-26,13.72-36,23.51-3.91,3.85-5.26,8.21-8.19,12.73-7,10.87-16.11,19.47-25.65,27.78-7.87,6.86-16.34,15.89-25.89,20-15.17,6.45-35.73,2.45-50-4.16-5.7-2.63-11.93-5-18-5.94-23.61-3.54-44.44,6.05-65.57-8.29-10.16-6.89-18.29-17.81-30.44-14-4.86,1.5-8.32,5.41-13.46,6.95-7.5,2.24-16.3,1.14-21.86,7.48-3.91,4.47-5.2,12.54-9.32,17.4-7,8.23-19.51,8.14-24.31,17.89-1.38,2.81-.9,6.34-2.92,10-7.63,13.65-20.64,21.14-32.48,29.5-12.08,8.52-22,18.56-33.21,28-10.39,8.78-19.84,27.06-32.12,33.11-12.62,6.22-29.33,8.81-42.35,15-11.37,5.39-8.21,6.25-12,16.27-2.25,5.94-9.92,11.35-14.1,15.8-16.23,17.27-30.23,36.77-46.55,54,6,8.89,11.75,21.83,15,27,9.83,15.86,19.94,21.57,39,19.66a123.89,123.89,0,0,0,13.12-2.22c6.47-1.38,13.25-3.68,19.92-2.28,7.9,1.65,15,8.14,19.31,14.64,3,4.42,4.68,9.57,7.61,14,3.12,4.74,7.72,8.26,10.75,13.05,2.9,4.59,5.64,11.6,10.71,14.39,9.52,5.25,23.16,3.29,32.87,8.79,8.5,4.81,15.94,11.25,25.66,14.55,5.24,1.78,10.69,2.31,16.07,4.11,6.39,2.13,12.19,5.43,18.88,6.38,7,1,14.63-.76,21.72-.36,6.39.36,12.54,2.09,18.68,3.76,20.2,5.48,32.21,14.85,46.82,28.85,8.65,8.3,18.8,7.86,29.06,12.39,9.59,4.24,10.19,5.51,22.47,7.71,14.51,2.59,29.38,3.31,43.74,6,10,1.87,24.7,4.06,34.74.52a123.09,123.09,0,0,0,17.52-10.8,137.76,137.76,0,0,0,21.11-14.84c3.63-3.64,8.89-9.11,12.22-13.25,7.09-8.82,14.47-16.92,21.81-25.53,4.42-5.19,6-8.17,12.41-11.19,11.67-5.49,25.32-3.45,37-8.17,12.44-5,20.24-17.38,32.25-23.44,17.26-8.7,35.12-3.53,53.44-4.27,22.51-.91,45-2,67.55-2.12,23-.08,46.21-.42,69.25.08,16.12.35,33.4,1.76,48.86,6.83a55.68,55.68,0,0,0,26.48,7.9,182.85,182.85,0,0,0,53.33,1.22c37.92-.25,75.89-.79,113.81-.56,31.19.2,62.4,8.35,93.41,8,19.3-.19,39.8-3.89,59.23-5.39q59.72-4.19,119.15-11.81Z"/><path class="cls-8" d="M1455.9,839.7c-1-1.64-.2-4.15-.93-5.9-2.79-6.7-4.79-5.38-11.64-6.52-7.2-1.21-13.69-4.7-20.94-5.61-3.45-.43-4.51,1.15-8.76-.11-6.88-2-8.44-8.25-12-13.32-5.8-8.22-14.57-13.75-22-20.78-6.94-6.54-10.79-9.75-19-12.38-15.59-5-28.67-8-45.5-7.27-9,.38-14.65-6.68-21.09-11.77a30.46,30.46,0,0,0-11-5.94c-21-6-44-8.15-65.43-13.22-5-1.19-41.55-7.22-48.94-17.43-3.15-4.35-3.88-10.72-6.29-15.47-2.71-5.34-6.26-10.15-9-15.5-6.73-13-21.19-24.73-34.94-30.26-12.74-5.13-16.79-7.58-34.44-11-11.79-2.28-33.51-1.36-42.61-8.94-4.88-4.07-9.5-11.09-14.23-15.76q-13.37-13.38-26.84-26.65-13.34-12.95-26.06-26.49c-3-4.71-2.26-10.1-4.72-14.37-1.81-3.14-4.21-3.39-7.78-5a111.57,111.57,0,0,1-37.23-27c-5-5.4-10.07-8.65-17.15-11.76-4.78-2.09-10.08-3-14.74-5-8.85-3.79-15.6-11.33-22.16-18-19.23-19.65-33.83-39.84-59.32-52.21-7.69-3.73-16.87-4.21-23.68-8.9-10.12-7-18.54-28.58-22.82-40.18-3.39-9.17-4.3-19.63-10.73-27.46-17.43-21.25-47.37-12.29-70.54-8.94-15.29,2.2-11.61,4-20.75-4.54-4.64-4.35-8.35-8.05-13.92-10.85-9.72-4.88-22.44-4.48-33-7.24s-19.75-7.69-30.68-9c-1,6.73-9.54,10.12-14.29,13.79-10.25,8-21.27,14.05-32.07,21.1-14.92,9.72-26.62,11.41-45.11,15-19,3.74-38.45,6.16-55.28,16.35-3.73,2.25-9.31,4.63-12,7.25a14.21,14.21,0,0,1-1.33,4.79q-4,5.67-8.41,10.95c-8.23,11.56-12.47,23.47-22.28,34.31-1.07,1.18-16.09,12.15-13.44,17.41-36.11-1.7-75.43,1.46-109.88,13.08-9.84,3.31-6.15,4.58-14.95,4.93-5.18.2-11.92-1.75-17,.23-7.74,3.06-14.19,13.79-20.11,19.28-7.09,6.58-14.08,12-20.24,19.55-4,4.92-8.37,5.93-12.92,9.5s-7.94,7.73-12.62,11.28c-4.45,3.36-8.15,7.33-12.69,10.61-14.89,10.76-37.13,12.08-55.28,10.7-4.54-.35-14.79-5.48-19-3.67-3.32,1.46-7.34,9.54-10,12.76C60,587.36,32.51,595.83,12.6,611.27c-3.86,3-8.9,4.7-12.6,7.18V808c10.09,1.66,20.19,3.28,30.36,3.29,19.72,0,39.3-3.35,58.9-5.11,22.25-2,43.13-.61,65.24-1,22.76-.41,45-6.27,67.69-6.64,17.37-.29,34.78.33,52.15.32,21.81,0,46.64,3.4,67.84-2.29,6.75-1.81,12.13-3.55,19.05-1.19,5,1.71,9.1,5,14.34,6.08a101.64,101.64,0,0,1,13.62,3.42,79.5,79.5,0,0,1,20.34,10.7c3.19,1.65,6.31,3.2,9.64,3.71,12.23,1.85,25.43,1.29,37.54,4.73,13,3.69,27.11,9.26,39.56,14.41,10.09,4.17,21.73,7.4,30.07,14.7,10.56,9.24,18.16,24.48,25.45,36.18,6.22,10,10.8,15.89,21.05,22.46,14.65,9.41,32.9,18.26,49,25,11.47,4.8,20.23,5.89,30.88,12.41,6.48,4,13.67,7.33,19.89,11.65a161.25,161.25,0,0,0,27,15.11c20.18,9.15,37.23,18.11,58.75,21.87,11.9,2.07,20,5.18,30.3,11,24.79,14,48.79,33.15,75.78,42.5,12.93,4.49,25.66,9.31,39.39,10.7,19.32,2,47.42-5.08,64.62-9.35,28.43-7,55.65-18.48,83.24-29.27,20.7-8.11,41.09-9.42,62.27-15,15-3.92,29.18-9.78,43.81-14.63,1.36-.45,13.44-2.9,17.19-4.73,4.7-2.3,7.13-5.77,12.19-7.63,4.8-1.76,13.42-2.28,17.88-2.83,18.89-2.35,37.93-4,56.91-5.23,30.86-1.94,62.32-2.36,92.57-9.4,10.23-2.38,23.17-5.08,32.87-8.92,21.28-8.42,49.77-10.51,63.78-31.14,4.23-6.23,4.63-12.79,7.48-19.85s6.94-13.53,8.47-21.05c1.8-8.82,3.68-28.06-1.32-35.06C1463.62,844.93,1458,843.18,1455.9,839.7Z"/><path class="cls-8" d="M1920,406.86c-5.55-2.77-11.48-5.39-16.18-9.51-3.36-3-5.61-6.73-8.57-10-7-7.84-16.83-12.31-25.14-18.57-6.82-5.14-14.15-9.4-19.7-16.21-6.25-7.66-8-16.75-16.93-22.4-9.21-5.84-21-14.62-26.75-23.81-4.06-6.52-2-12.61-3.54-20-2-9.8-9.81-16.49-16.06-23.79-10.25-12-13.66-25.87-19.26-40.56-6.72-17.64-26.66-24.5-33.56-42.59-4.27-11.15-11-27.23-21-34.68-4.06-3-8.38-3.06-13.42-3.65-2-.24-1.26-2.82-4.15-1.92-4.85,1.51-6,8.11-8.27,11.86-6.42,10.59-16.29,26.77-27.92,31.66-6.4,2.69-10.36,2.31-16.73,6.91-7.86,5.68-23.18,10.85-25.65,21.48-.41,1.76,1.06,4,.68,5.89-.32,1.52-2.28,2.89-2.53,4.1-1.39,6.87-.69,11.84-3.59,18.23-3.93,8.66-5.58,17.17-8.09,26.41-1.83,6.73-7,11.45-10.06,17.25-2.37,4.56-4.88,8.43-6,13.43-3.08,13.57-16,31.2-25.16,41.52A39.57,39.57,0,0,0,1552,352.11a62.91,62.91,0,0,1-2.37,9c-2.73,4-7.61,6.14-10.86,9.86-4.39,5-5.44,7.56-11.51,12.18-6.79,5.17-13.4,9.52-20.39,14s-12.16,12.52-18,18.25-12.15,11.53-16.81,18.11c-9.93,14-14.12,30.22-23.13,44.95-8.31,13.58-13.6,28.19-24.68,39.73-13.6,14.17-25,28.6-40.36,41.13-13.54,11-25.55,18.87-27.38,36.68-.82,8,2.48,18.23.33,25.87-1.85,6.58-5.48,11.58-7.12,18.85-1.92,8.52-2.05,15.39-2.09,24.18-.09,21.43,17.2,38.79,18.22,60.73.5,10.85,1.92,26-4.25,35q-6.66,6.75-13,13.8a25.47,25.47,0,0,1-2.47,7c-8,10.93-27.41,11.89-37.75,20.41-10.84,8.94-3.18,13.64,1,22.92,2.64,5.93,6.89,15.49,4.93,22a80.06,80.06,0,0,1-15.86,12.49,96.26,96.26,0,0,0-22.83,17.56c14.24,9.26,47.75,4.36,81.1-7.34,13.57-4.76,27.8-7.69,40.59-14.55,6.92-3.7,11.36-8.64,18.88-10.81,14.88-4.28,33.88-2,49.45-4.55,5.64-.92,11.08-1.27,16.72-1.88,17.69-1.9,35.83-8.7,51.17-17.73a310.89,310.89,0,0,1,37.85-18.84c6.29-2.58,9.58-3.11,16.61-2.92,17.28.47,35.94-.69,53.07,2.64,6.32,1.23,12.37,4.09,18.67,5.48,19.32,4.27,41.6,4.49,61.37,7,1.32.16,2.18.58,3.63.7,27.28,2.21,53.76-3.94,80.83-3.78,25.43.14,51.33,2.7,76.64,5.94,11.76,1.51,23.84.58,35.71.66.74,0,1.48,0,2.21,0Z"/><path class="cls-9" d="M873.22,1079c-1.08.39-2.2.72-3.33,1H1920V761.44l-1.94-1.4a141,141,0,0,0-34.69-23.13,167.75,167.75,0,0,1-16.94-4.67c-12.8-4.44-16.37-5-25.44-16.94-19.54-25.61-27.61-57.7-46.13-83.52-20.16-28.1-39.38-2.55-55.16,15.63-22.72,26.19-50,46.24-85.78,51.06-11.08,1.49-24.49-2.11-35.32.82-8.08,2.19-12.8,9.8-20,13.81-8.68,4.85-17.59,4.89-27.7,4.57-13.89-.44-31.52-17.44-39.59-26.32-9.4-10.34-10.29-11-23.89-10.86-14.12.15-17.49,5.46-28.6,13.18-12.86,8.93-22.19,18.48-34.18,29-20.94,18.28-45.48,36.09-61.6,59.08-4.18,6-9.63,12.31-13.23,18.46-3.06,5.23-4,10.6-7.69,15.64-5.61,7.76-13.31,14.58-20.8,20.48a63.5,63.5,0,0,1-26.66,12.94,142.7,142.7,0,0,1-28.76-5c-8.66-1.61-16-1.68-24.9-1.49-5.62.11-21.58-.94-28,3.52-5.21,3.62-8.55,13.67-11.71,19-6.07,10.27-12.28,19.9-15.27,31.63-9.48.05-26.9,9-32.28,11.19-20.28,8.18-40.46,17.11-61.16,24.21-9,3.09-18.06,5.13-26.13,10-7.3,4.36-14.35,9.71-21.64,14.21-6.86,4.24-11.49,9.74-17.92,13.92-7.64,5-17.28,6.3-24.51,12.27-7.44,6.15-13.32,14.94-19.9,22.06-5.1,5.51-10.1,11.64-15.44,16.89s-11,7.4-17.49,11.78a62.32,62.32,0,0,1-15.14,7.9c-16.62,5.82-34,12.31-50.94,16.64-8.5,2.18-16.47,5.37-24.83,7.64C881.35,1068.94,879.76,1076.64,873.22,1079Z"/><path class="cls-9" d="M867.26,1067.87a79.9,79.9,0,0,0,11.4-2.31C876.81,1063.24,872.94,1063,867.26,1067.87Z"/><path class="cls-9" d="M0,45.48v1.1a18.61,18.61,0,0,0,2.7,5.33C4.61,54.41,8.36,55.3,0,45.48Z"/><path class="cls-9" d="M1087.49,1079.24c-4-7.81-7.85-6.06-15.5-9-15.07-5.88-24.84-21.23-32.57-34.48-7.5-12.87-19.1-9.53-32.67-9.72-11.5-.17-15.24-8.25-25.31-13.2-5.52-2.72-9.41-3.61-13.62-8.38-5.53-6.27-8-14.08-15.86-18.44-5.46-3.05-10.26-2.19-16.38-2.1-20.61.32-55.25,4.72-69.5-13.37-7.72-9.8-9.76-15.82-20.67-22.86-4.91-3.17-10.36-4.78-15.18-8.17-7.24-5.08-11.65-11.81-20.63-13-6.79-.88-14,1.16-20.86.76-16.53-1-28.3-16.67-40-26.76-7.45-6.41-11.06-6.47-20.48-8.14-9.7-1.71-15.61-5.79-22.23-13.1-3.4-3.75-5.74-8-9.69-11.1-3.74-3-8.54-5-12.56-7.62C666.3,849,653,832.81,636.24,820.42c-13.1-9.67-29.64-5.2-43.31-13.33-15.4-9.16-30.37-18.1-42.3-31.66-8.37-9.52-9.22-22.22-16.63-31.39-6.06-7.49-17.73-18.77-27.31-21.28s-24.36,3.14-34.63,3.44c-15.3.44-18.65-3.65-29.9-11.37-13.94-9.55-24.3-20.23-34.93-33.46-5.57-6.93-10.87-14.82-19.25-18.75-3.3-1.54-7.26-1.88-10.7-3.12-13.34-4.8-25.26-11.79-30.18-26.62-17.82,1.14-28.33-16.45-39.62-27.09-3.08-2.9-4.46-3-7.92-5.68-7.44-5.85-11.46-19.38-15.93-27.54-6.87.18-15.45.16-21.59-3.6-7.72-4.73-11-16.13-16.36-22.87-3.33-4.21-7.47-6.88-9.08-11.85-1.52-4.69.28-13.63.28-18.69,0-12.6-.46-21.55,3-33.18,3-10,3-16.77,3.08-27q.18-8.62.37-17.27,3.18-8-2.78-12.23A94.51,94.51,0,0,1,225.38,406l-10.7-20.28c-3.29-8.55-2.12-13.9-1.79-22.21.38-9.82-2.37-18.38-3.15-27.82-1.78-21.41-3.82-45-19.71-60.5-9.22-9-16.59-21.57-25-31.49-9.56-11.22-19.22-24.38-31.7-32.59-9.18-6-19-10.32-28.29-16-8.77-5.34-15.8-12.7-24.77-18-5.16-3.07-8.14-4.64-11.35-9.57C61.56,156.34,57.54,143.09,50,131.8c-4.56-6.77-7.27-10.73-8.35-18.67-.77-5.66-.52-14.06-3.39-19.25s-9.68-10.1-14.26-13c-5.1-3.2-9.52-5.26-13.64-10.64A77.77,77.77,0,0,1,0,51.39V1080H1087.89C1087.76,1079.75,1087.62,1079.5,1087.49,1079.24Z"/><rect class="cls-10" width="1920" height="1080"/></g></g></svg>